<?xml version="1.0" encoding="utf-8"?>
<!-- Generator: Adobe Illustrator 19.0.0, SVG Export Plug-In . SVG Version: 6.00 Build 0)  -->
<svg version="1.1" id="图层_1" xmlns="http://www.w3.org/2000/svg" xmlns:xlink="http://www.w3.org/1999/xlink" x="0px" y="0px"
	 viewBox="0 0 170.1 170.1" style="enable-background:new 0 0 170.1 170.1;" xml:space="preserve">
<style type="text/css">
	.st0{clip-path:url(#XMLID_33_);}
	.st1{fill:#E1626E;}
	.st2{font-family:'SofiaPro-SemiBold';}
	.st3{font-size:13.6064px;}
	.st4{fill:#1BD0A1;}
	.st5{font-size:6.8032px;}
	.st6{fill:#3DB4E2;}
	.st7{fill:#F9B42D;}
	.st8{font-size:18.7088px;}
</style>
<rect id="XMLID_31_" width="170.1" height="170.1"/>
<rect id="XMLID_30_" x="34.2" y="34.2" width="135.9" height="135.9"/>
<g>
	<defs>
		<rect id="XMLID_1_" width="170.1" height="170.1"/>
	</defs>
	<clipPath id="XMLID_33_">
		<use xlink:href="#XMLID_1_"  style="overflow:visible;"/>
	</clipPath>
	<g id="XMLID_29_" class="st0">
		<text transform="matrix(1 0 0 1 20.7495 49.4936)" class="st1 st2 st3">open/free</text>
	</g>
	<g id="XMLID_28_" class="st0">
		<text transform="matrix(1 0 0 1 88.9531 56.6372)" class="st4 st2 st5">source code</text>
	</g>
	<g id="XMLID_27_" class="st0">
		<text transform="matrix(1 0 0 1 38.9487 38.268)" class="st1 st2 st5">open mind</text>
	</g>
	<g id="XMLID_26_" class="st0">
		<text transform="matrix(1 0 0 1 36.9077 56.977)" class="st1 st2 st5">open company</text>
	</g>
	<g id="XMLID_25_" class="st0">
		<text transform="matrix(1 0 0 1 14.6264 65.1411)" class="st1 st2 st5">free software</text>
	</g>
	<g id="XMLID_24_" class="st0">
		<text transform="matrix(1 0 0 1 68.3725 64.8002)" class="st1 st2 st5">git</text>
	</g>
	<g id="XMLID_23_" class="st0">
		<text transform="matrix(1 0 0 1 16.6674 76.8764)" class="st1 st2 st5">github</text>
	</g>
	<g id="XMLID_22_" class="st0">
		<text transform="matrix(1 0 0 1 96.7753 48.8129)" class="st4 st2 st3">share</text>
	</g>
	<g id="XMLID_21_" class="st0">
		<text transform="matrix(1 0 0 1 134.5331 46.602)" class="st4 st2 st5">idea</text>
	</g>
	<g id="XMLID_20_" class="st0">
		<text transform="matrix(1 0 0 1 134.1933 56.4672)" class="st4 st2 st5">hobby</text>
	</g>
	<g id="XMLID_19_" class="st0">
		<text transform="matrix(1 0 0 1 109.7011 38.268)" class="st4 st2 st5">feeling</text>
	</g>
	<g id="XMLID_18_" class="st0">
		<text transform="matrix(1 0 0 1 126.8789 65.9907)" class="st4 st2 st5">resource</text>
	</g>
	<g id="XMLID_17_" class="st0">
		<text transform="matrix(1 0 0 1 33.6762 115.6542)" class="st6 st2 st3">technology</text>
	</g>
	<g id="XMLID_16_" class="st0">
		<text transform="matrix(1 0 0 1 47.4526 125.6894)" class="st6 st2 st5">information technology</text>
	</g>
	<g id="XMLID_15_" class="st0">
		<text transform="matrix(1 0 0 1 19.0493 86.4003)" class="st1 st2 st5">social coding</text>
	</g>
	<g id="XMLID_14_" class="st0">
		<text transform="matrix(1 0 0 1 26.8725 102.3886)" class="st6 st2 st5">program language</text>
	</g>
	<g id="XMLID_13_" class="st0">
		<text transform="matrix(1 0 0 1 90.4824 96.0956)" class="st6 st2 st5">cloud computing</text>
	</g>
	<g id="XMLID_12_" class="st0">
		<text transform="matrix(1 0 0 1 21.0903 94.3945)" class="st6 st2 st5">communication</text>
	</g>
	<g id="XMLID_11_" class="st0">
		<text transform="matrix(1 0 0 1 57.9975 135.0449)" class="st6 st2 st5">wireless network</text>
	</g>
	<g id="XMLID_10_" class="st0">
		<text transform="matrix(1 0 0 1 94.7343 104.5996)" class="st6 st2 st5">mobile phone</text>
	</g>
	<g id="XMLID_9_" class="st0">
		<text transform="matrix(1 0 0 1 81.4682 144.3984)" class="st6 st2 st5">AI</text>
	</g>
	<g id="XMLID_8_" class="st0">
		<text transform="matrix(1 0 0 1 103.9179 115.6542)" class="st6 st2 st5">Big Data</text>
	</g>
	<g id="XMLID_7_" class="st0">
		<text transform="matrix(1 0 0 1 38.268 78.0668)" class="st7 st2 st8">community</text>
	</g>
	<g id="XMLID_6_" class="st0">
		<text transform="matrix(1 0 0 1 88.1015 64.9711)" class="st7 st2 st5">global</text>
	</g>
	<g id="XMLID_5_" class="st0">
		<text transform="matrix(1 0 0 1 129.4316 86.7402)" class="st7 st2 st5">social</text>
	</g>
	<g id="XMLID_4_" class="st0">
		<text transform="matrix(1 0 0 1 136.914 77.0463)" class="st7 st2 st5">topic</text>
	</g>
	<g id="XMLID_3_" class="st0">
		<text transform="matrix(1 0 0 1 70.5834 85.3803)" class="st7 st2 st5">chat</text>
	</g>
	<g id="XMLID_2_" class="st0">
		<text transform="matrix(1 0 0 1 93.5449 87.2499)" class="st7 st2 st5">speak</text>
	</g>
</g>
</svg>
